#!OML:ASF F:\VICON\USERDATA\INSTALL\Justin_Nancy\Justin_Nancy.ASF
:FULLY-SPECIFIED
:DEGREES
32
root 0.691553 18.0136 -17.7029 8.02888 -7.51593 4.50003
lowerback 9.34998 -2.36948 -6.24344
upperback -0.661725 -3.78005 1.36614
thorax -5.44936 -1.6609 5.46468
lowerneck -23.8509 -2.11362 -8.72745
upperneck 11.3034 -1.36487 7.57669
head 7.44463 -0.291745 3.77142
rclavicle -6.60959e-014 -2.46493e-014
rhumerus -61.244 13.629 -99.7014
rradius 115.624
rwrist -11.0146
rhand 1.6296 21.5339
rfingers 7.12502
rthumb 27.1503 -6.53307
lclavicle -6.60959e-014 -2.46493e-014
lhumerus -41.9351 -13.1407 95.9951
lradius 114.354
lwrist 26.88
lhand -23.0259 10.0929
lfingers 7.12502
lthumb 3.41809 40.0453
rfemur -34.9633 -0.320715 20.6206
rtibia 18.7431
rfoot 4.0331 -2.29102
rtoes -16.2461
lfemur 11.9544 -8.18013 -31.834
ltibia 32.6685
lfoot 27.6718 -11.1463
ltoes 11.4029
33
root 0.676222 17.9518 -17.3038 7.73835 -7.46339 4.45151
lowerback 9.62181 -2.54793 -6.37686
upperback -0.888087 -4.03732 1.71976
thorax -5.77421 -1.75834 5.97528
lowerneck -22.0478 -1.83172 -9.25304
upperneck 10.654 -0.902894 7.27004
head 6.90074 -0.149199 3.78644
rclavicle -2.08724e-015 3.57812e-014
rhumerus -61.3839 14.3323 -99.6005
rradius 115.788
rwrist -11.3915
rhand 1.36913 21.5537
rfingers 7.12502
rthumb 26.9011 -6.55195
lclavicle -2.08724e-015 3.57812e-014
lhumerus -42.8434 -12.0997 96.4481
lradius 114.016
lwrist 26.6004
lhand -22.8518 10.0545
lfingers 7.12502
lthumb 3.58621 40.0041
rfemur -34.5033 -0.237694 20.8304
rtibia 19.6622
rfoot 4.4008 -1.94532
rtoes -17.6679
lfemur 11.2738 -8.26834 -31.6814
ltibia 35.9561
lfoot 26.9709 -11.8635
ltoes 12.2709
34
root 0.664707 17.875 -16.9039 7.42074 -7.55793 4.25883
lowerback 9.92735 -2.87493 -6.7335
upperback -1.25046 -4.50256 2.45254
thorax -6.18174 -1.93461 7.06076
lowerneck -19.9387 -1.3478 -10.2012
upperneck 9.92452 -0.107232 6.91212
head 6.25459 0.138562 3.88185
rclavicle 2.5345e-014 -1.90833e-014
rhumerus -62.0652 16.1076 -99.3624
rradius 116.109
rwrist -11.8649
rhand 0.786243 21.5672
rfingers 7.12502
rthumb 26.3432 -6.62315
lclavicle 2.5345e-014 -1.90833e-014
lhumerus -44.0082 -9.95503 97.232
lradius 113.694
lwrist 26.2678
lhand -22.7329 9.88722
lfingers 7.12502
lthumb 3.70104 39.8348
rfemur -34.1276 -0.483824 21.3821
rtibia 21.0723
rfoot 4.66618 -0.734978
rtoes -18.6624
lfemur 10.5056 -8.0256 -31.3362
ltibia 39.3382
lfoot 26.2719 -12.6818
ltoes 13.3623
35
root 0.654628 17.7897 -16.5099 7.06028 -7.98086 3.79437
lowerback 10.161 -2.62609 -6.22765
upperback -1.06391 -4.11347 2.51266
thorax -6.20828 -1.76309 6.79661
lowerneck -19.6712 -1.4423 -10.0913
upperneck 9.74322 -0.254377 6.69664
head 6.16584 0.0519442 3.77198
rclavicle 4.67144e-015 -5.64548e-014
rhumerus -61.4022 16.0056 -99.213
rradius 116.3
rwrist -11.9011
rhand 0.329262 21.8867
rfingers 7.12502
rthumb 25.9057 -6.3684
lclavicle 4.67144e-015 -5.64548e-014
lhumerus -44.1223 -10.118 97.3386
lradius 113.096
lwrist 26.1212
lhand -23.0916 10.1995
lfingers 7.12502
lthumb 3.35466 40.1528
rfemur -33.8004 -0.580272 22.2179
rtibia 22.8898
rfoot 4.72657 1.03806
rtoes -19.4423
lfemur 9.62612 -7.30884 -30.6629
ltibia 42.7682
lfoot 25.6378 -13.6957
ltoes 11.5569
36
root 0.642043 17.6974 -16.1115 6.46389 -8.43774 3.54112
lowerback 10.364 -1.62005 -4.95869
upperback -0.212324 -2.67205 1.46066
thorax -5.74696 -1.14892 4.73461
lowerneck -21.4817 -2.28377 -8.42681
upperneck 10.1739 -1.69015 6.66954
head 6.70827 -0.553248 3.34757
rclavicle -6.4605e-015 9.54166e-015
rhumerus -59.0392 12.9379 -99.2061
rradius 116.415
rwrist -11.7678
rhand -0.100588 21.9862
rfingers 7.12502
rthumb 25.494 -6.32841
lclavicle -6.4605e-015 9.54166e-015
lhumerus -43.0756 -13.4895 96.5089
lradius 112.15
lwrist 26.4918
lhand -23.3136 10.4233
lfingers 7.12502
lthumb 3.14023 40.3799
rfemur -33.3112 -0.449698 22.691
rtibia 25.069
rfoot 4.39855 3.40168
rtoes -8.34056
lfemur 8.89868 -6.39413 -30.1324
ltibia 46.1791
lfoot 25.008 -14.413
ltoes 7.31275
37
root 0.627117 17.61 -15.7061 5.86786 -8.64725 3.3583
lowerback 10.8316 -1.54511 -4.6807
upperback 0.190543 -2.54586 1.57442
thorax -5.60436 -1.10622 4.68914
lowerneck -22.3086 -2.35752 -8.52789
upperneck 10.4231 -1.65291 6.38321
head 6.91601 -0.55534 3.27801
rclavicle 4.99943e-014 -7.95139e-015
rhumerus -57.703 13.4855 -98.9632
rradius 116.465
rwrist -12.0441
rhand -0.624984 21.3937
rfingers 7.12502
rthumb 24.9916 -6.99171
lclavicle 4.99943e-014 -7.95139e-015
lhumerus -42.8993 -12.9515 96.4363
lradius 111.568
lwrist 26.5452
lhand -23.4555 10.2434
lfingers 7.12502
lthumb 3.0032 40.202
rfemur -32.861 -0.345442 22.9796
rtibia 27.7112
rfoot 3.60777 6.07023
rtoes 3.47192
lfemur 8.15075 -5.67947 -29.5911
ltibia 49.5596
lfoot 24.8128 -14.6533
ltoes 5.02692
